<svg width="925" height="276" viewBox="0 0 925 276" fill="none" xmlns="http://www.w3.org/2000/svg">
<g clip-path="url(#clip0_4_438)">
<path d="M132.541 49.113C131.929 48.258 130.582 48.5807 130.425 49.6205L129.525 55.569L122.087 58.4841L115.843 53.5002L116.721 47.6924C116.88 46.6444 115.669 45.9372 114.835 46.5944C112.454 48.4696 110.753 51.217 110.264 54.45C109.559 59.1065 111.571 63.5752 115.104 66.2106L113.427 77.2964L96.6425 90.9633L91.3464 79.7603C87.2756 71.1483 78.4902 65.5835 68.9642 65.5835C68.3728 65.5835 68.0249 65.5835 67.829 65.5835C67.6622 65.5835 67.6065 65.5835 67.6065 65.5835C66.3626 65.5835 58.9268 65.5835 22.1858 65.5835C10.1078 65.5835 0.0608802 75.4092 -0.000119807 87.4877V155.829C-0.0258542 160.966 3.94629 165.152 9.08412 165.178C9.09984 165.178 9.11557 165.178 9.13177 165.178C14.2472 165.178 18.6359 161.044 18.6621 155.923V87.5802V87.5792C18.6673 86.5618 19.6095 85.7406 20.6274 85.7435C21.6449 85.7464 22.4679 86.5722 22.4679 87.5897C22.4684 110.288 22.4722 239.029 22.4722 243.958C22.4722 250.123 27.4699 255.121 33.6352 255.121C39.8005 255.121 44.7982 250.123 44.7982 243.958V154.732H49.6181V243.959C49.6181 250.124 54.6159 255.122 60.7811 255.122C66.9464 255.122 71.9441 250.124 71.9441 243.959C71.9441 243.959 71.7692 112.287 71.7445 88.3374C71.744 87.6531 72.2177 87.0602 72.8854 86.9106C73.5525 86.7605 74.2345 87.0931 74.5271 87.7122L84.8981 109.652C87.4706 115.093 94.4903 116.71 99.1821 112.889L110.094 104.004C110.794 105.951 112.512 107.461 114.7 107.793C117.877 108.273 120.842 106.087 121.322 102.911L122.71 93.7321L126.46 90.6792C130.444 87.4353 131.044 81.576 127.799 77.5924C127.122 76.7598 126.325 76.084 125.459 75.5508L126.608 67.951C130.7 66.4994 133.994 62.8661 134.708 58.1467C135.208 54.8365 134.345 51.6364 132.541 49.113Z" fill="black"/>
<path d="M47.2049 20.8786C36.5566 20.8786 27.9255 29.5105 27.9255 40.1589C27.9255 50.82 36.5813 59.4382 47.2049 59.4382C57.846 59.4382 66.4847 50.8067 66.4847 40.1584C66.4847 29.5105 57.8527 20.8786 47.2049 20.8786Z" fill="black"/>
<path d="M238.192 125.45H222.19C218.983 125.45 216.383 128.05 216.383 131.257V138.446L215.188 139.706L206.424 92.7223C205.852 89.6546 203.174 87.431 200.054 87.431H140.113C139.579 92.7756 136.857 97.5527 132.874 100.834C132.27 102.051 132.337 103.084 132.337 103.982C132.337 106.873 134.681 109.217 137.572 109.217H154.288C157.179 109.217 159.523 106.873 159.523 103.982C159.523 103.011 159.621 101.815 158.743 100.389H194.672L202.726 143.569H193.235C192.196 132.708 183.033 124.183 171.906 124.183C160.778 124.183 151.615 132.708 150.577 143.569H89.1339L92.5142 125.449C88.4091 125.284 84.6052 123.884 81.4351 121.507V172.74C83.8369 169.087 87.9683 166.673 92.6648 166.673C100.085 166.673 106.1 172.691 106.1 180.116C106.1 187.541 100.085 193.56 92.6648 193.56C87.9683 193.56 83.8369 191.147 81.4351 187.493V238.406C84.2439 241.687 88.4134 243.77 93.0713 243.77C101.529 243.77 108.386 236.913 108.386 228.455V214.709H122.224V219.901C122.224 222.8 124.575 225.151 127.475 225.151H164.386C167.285 225.151 169.636 222.8 169.636 219.901V214.709H183.474V228.455C183.474 236.913 190.331 243.77 198.789 243.77C207.247 243.77 214.104 236.913 214.104 228.455V214.709H217.088C222.755 214.709 227.349 210.115 227.349 204.448V171.52C227.349 163.311 223.738 155.951 218.023 150.926L223.992 144.633H238.193C241.4 144.633 244 142.033 244 138.826V131.257C243.999 128.049 241.399 125.45 238.192 125.45ZM161.038 204.087H130.823C128.123 204.087 125.935 201.898 125.935 199.198C125.935 196.498 128.123 194.309 130.823 194.309H161.038C163.738 194.309 165.927 196.498 165.927 199.198C165.926 201.898 163.737 204.087 161.038 204.087ZM169.109 185.461H122.751C120.051 185.461 117.863 183.272 117.863 180.572C117.863 177.872 120.052 175.683 122.751 175.683H169.109C171.808 175.683 173.997 177.872 173.997 180.572C173.997 183.272 171.809 185.461 169.109 185.461ZM161.488 143.569C162.45 138.685 166.743 134.982 171.906 134.982C177.068 134.982 181.361 138.685 182.323 143.569H161.488ZM199.196 193.56C191.775 193.56 185.761 187.542 185.761 180.117C185.761 172.692 191.775 166.673 199.196 166.673C206.616 166.673 212.63 172.692 212.63 180.117C212.63 187.541 206.616 193.56 199.196 193.56Z" fill="black"/>
</g>
<g clip-path="url(#clip1_4_438)">
<path d="M413.065 249.784L460.675 201.466L413.065 153.148L413.065 173.884L348 173.884L348 229.048L413.065 229.048L413.065 249.784Z" fill="black"/>
<path d="M413.065 122.852L460.675 74.5344L413.065 26.2164L413.065 46.9524L348 46.9524L348 102.116L413.065 102.116L413.065 122.852Z" fill="black"/>
<path d="M530.394 186.318L578 138L530.394 89.6821L530.394 110.418L465.325 110.418L465.325 165.582L530.394 165.582L530.394 186.318Z" fill="black"/>
</g>
<path d="M666.25 60.375V215.625H907.75V60.375H666.25ZM683.5 77.625H890.5V198.375H683.5V77.625ZM700.75 94.875V181.125H726.625C740.891 181.125 752.5 169.516 752.5 155.25V120.75C752.5 106.484 740.891 94.875 726.625 94.875H700.75ZM787 94.875C777.487 94.875 769.75 102.612 769.75 112.125V163.875C769.75 173.388 777.487 181.125 787 181.125H804.25V163.875H787V146.625H804.25V129.375H787V112.125H804.25V94.875H787ZM818.838 94.875L836.813 172.719C837.951 177.635 842.329 181.125 847.375 181.125C852.421 181.125 856.799 177.635 857.937 172.719L875.912 94.875H858.207L847.375 141.79L836.543 94.875H818.838ZM718 112.125H726.625C731.386 112.125 735.25 115.989 735.25 120.75V155.25C735.25 160.011 731.386 163.875 726.625 163.875H718V112.125Z" fill="black"/>
<defs>
<clipPath id="clip0_4_438">
<rect width="244" height="244" fill="white" transform="translate(0 16)"/>
</clipPath>
<clipPath id="clip1_4_438">
<rect width="230" height="230" fill="white" transform="translate(578 253) rotate(-180)"/>
</clipPath>
</defs>
</svg>
