<svg width="396" height="396" viewBox="0 0 396 396" fill="none" xmlns="http://www.w3.org/2000/svg">
<g clip-path="url(#clip0_3_109)">
<path d="M221.067 17.9934C215.053 -6.01414 180.972 -6.01414 174.933 17.9934L173.176 25.0719C172.148 29.1855 170.037 32.949 167.064 35.9719C164.091 38.9949 160.362 41.167 156.266 42.263C152.17 43.359 147.856 43.3389 143.77 42.2048C139.684 41.0707 135.976 38.8639 133.031 35.8134L127.958 30.5911C110.756 12.7959 81.2296 29.8486 88.0359 53.6334L90.0159 60.6624C91.1793 64.7349 91.233 69.0443 90.1714 73.1446C89.1098 77.2448 86.9715 80.9867 83.9778 83.9829C80.9842 86.9791 77.244 89.1206 73.1447 90.1856C69.0454 91.2507 64.7358 91.2006 60.6624 90.0406L53.6334 88.0359C29.8734 81.2296 12.7959 110.756 30.5911 127.958L35.8134 133.031C38.8639 135.976 41.0707 139.684 42.2048 143.77C43.3389 147.856 43.359 152.17 42.263 156.266C41.167 160.362 38.9949 164.091 35.9719 167.064C32.949 170.037 29.1855 172.148 25.0719 173.176L17.9934 174.933C-6.01414 180.947 -6.01414 215.028 17.9934 221.067L25.0719 222.824C29.1855 223.853 32.949 225.963 35.9719 228.936C38.9949 231.91 41.167 235.638 42.263 239.734C43.359 243.83 43.3389 248.145 42.2048 252.23C41.0707 256.316 38.8639 260.024 35.8134 262.969L30.5911 268.043C12.7959 285.244 29.8486 314.771 53.6334 307.964L60.6624 305.984C64.7374 304.819 69.0501 304.764 73.1532 305.827C77.2564 306.889 81.0006 309.03 83.9977 312.027C86.9948 315.024 89.1355 318.769 90.1981 322.872C91.2607 326.975 91.2063 331.288 90.0406 335.363L88.0359 342.367C81.2296 366.127 110.756 383.204 127.958 365.409L133.031 360.187C135.976 357.136 139.684 354.93 143.77 353.795C147.856 352.661 152.17 352.641 156.266 353.737C160.362 354.833 164.091 357.005 167.064 360.028C170.037 363.051 172.148 366.815 173.176 370.928L174.933 378.007C180.947 402.014 215.028 402.014 221.067 378.007L222.824 370.928C223.853 366.815 225.963 363.051 228.936 360.028C231.91 357.005 235.638 354.833 239.734 353.737C243.83 352.641 248.145 352.661 252.23 353.795C256.316 354.93 260.024 357.136 262.969 360.187L268.043 365.409C285.244 383.204 314.771 366.152 307.964 342.367L305.984 335.338C304.819 331.263 304.764 326.95 305.827 322.847C306.889 318.744 309.03 315 312.027 312.003C315.024 309.005 318.769 306.865 322.872 305.802C326.975 304.74 331.288 304.794 335.363 305.96L342.367 307.964C366.127 314.771 383.204 285.244 365.409 268.043L360.187 262.969C357.136 260.024 354.93 256.316 353.795 252.23C352.661 248.145 352.641 243.83 353.737 239.734C354.833 235.638 357.005 231.91 360.028 228.936C363.051 225.963 366.815 223.853 370.928 222.824L378.007 221.067C402.014 215.053 402.014 180.972 378.007 174.933L370.928 173.176C366.815 172.148 363.051 170.037 360.028 167.064C357.005 164.091 354.833 160.362 353.737 156.266C352.641 152.17 352.661 147.856 353.795 143.77C354.93 139.684 357.136 135.976 360.187 133.031L365.409 127.958C383.204 110.756 366.152 81.2296 342.367 88.0359L335.338 90.0159C331.265 91.1793 326.956 91.233 322.856 90.1714C318.755 89.1098 315.013 86.9715 312.017 83.9778C309.021 80.9842 306.88 77.244 305.815 73.1447C304.75 69.0454 304.8 64.7358 305.96 60.6624L307.964 53.6334C314.771 29.8734 285.244 12.7959 268.043 30.5911L262.969 35.8134C260.024 38.8639 256.316 41.0707 252.23 42.2048C248.145 43.3389 243.83 43.359 239.734 42.263C235.638 41.167 231.91 38.9949 228.936 35.9719C225.963 32.949 223.853 29.1855 222.824 25.0719L221.067 17.9934ZM198 321.676C181.61 321.908 165.337 318.88 150.127 312.768C134.918 306.656 121.074 297.582 109.402 286.074C97.7293 274.565 88.4606 260.851 82.1342 245.73C75.8078 230.608 72.5499 214.38 72.5499 197.988C72.5499 181.596 75.8078 165.368 82.1342 150.246C88.4606 135.124 97.7293 121.41 109.402 109.902C121.074 98.3933 134.918 89.3195 150.127 83.2076C165.337 77.0957 181.61 74.0678 198 74.2996C230.808 74.2996 262.271 87.3323 285.47 110.531C308.668 133.729 321.701 165.193 321.701 198C321.701 230.808 308.668 262.271 285.47 285.47C262.271 308.668 230.808 321.701 198 321.701V321.676Z" fill="black"/>
</g>
<defs>
<clipPath id="clip0_3_109">
<rect width="396" height="396" fill="white"/>
</clipPath>
</defs>
</svg>
