<svg width="24" height="24" viewBox="0 0 24 24" fill="none" xmlns="http://www.w3.org/2000/svg">
<g clip-path="url(#clip0_2_18)">
<path d="M23.9309 5.83343C23.9125 5.61979 23.7718 5.43626 23.5707 5.36307C23.3692 5.28944 23.1436 5.33956 22.992 5.49093L19.8899 8.59284L16.4509 7.50396L15.3621 4.06506L18.4642 0.9629C18.616 0.811234 18.6655 0.585585 18.5924 0.384397C18.5185 0.182809 18.3355 0.0423972 18.1214 0.0238891C16.2374 -0.138432 14.3914 0.534212 13.0568 1.86905C11.2289 3.6971 10.7448 6.36656 11.602 8.64196C11.5083 8.72089 11.4159 8.80453 11.3247 8.89472L0.969708 18.6658C0.966056 18.6693 0.962455 18.6733 0.958503 18.6768C-0.25928 19.8946 -0.25928 21.8761 0.958503 23.0941C2.17649 24.3119 4.1435 24.2971 5.36108 23.0792C5.36633 23.0743 5.37113 23.0694 5.37594 23.064L15.0618 12.6284C15.1501 12.5397 15.232 12.4469 15.3093 12.3516C17.5853 13.2104 20.2565 12.7274 22.086 10.8982C23.4203 9.56326 24.0934 7.71715 23.9309 5.83343ZM3.80065 21.7786C3.3519 22.2272 2.62513 22.2269 2.17644 21.7786C1.72789 21.3303 1.72789 20.6029 2.17644 20.1545C2.62513 19.7062 3.3519 19.7062 3.80065 20.1545C4.24919 20.6029 4.24919 21.3303 3.80065 21.7786Z" fill="black"/>
</g>
<defs>
<clipPath id="clip0_2_18">
<rect width="24" height="24" fill="white"/>
</clipPath>
</defs>
</svg>
