<svg width="125" height="125" viewBox="0 0 125 125" fill="none" xmlns="http://www.w3.org/2000/svg">
<g clip-path="url(#clip0_4_253)">
<path d="M118.151 50.1463H111.525C110.293 45.3446 108.371 40.8473 105.864 36.7335L110.627 31.959C111.914 30.6729 112.62 28.9572 112.62 27.1355C112.62 25.3165 111.908 23.5981 110.627 22.3147L102.688 14.3834C100.113 11.8058 95.6132 11.8086 93.0492 14.3807L88.0843 19.3157C84.0167 16.9447 79.6554 15.1176 74.851 13.943V6.85185C74.851 3.09149 71.8465 0 68.0862 0H56.8622C53.1018 0 50.1436 3.09149 50.1436 6.85185V13.9402C45.3418 15.1121 40.9534 16.942 36.8803 19.3157L31.9182 14.3807C29.346 11.8031 24.8434 11.8058 22.2631 14.378L14.3291 22.3093C13.0566 23.5791 12.3306 25.3355 12.3306 27.1301C12.3306 28.9491 13.0348 30.662 14.3236 31.9481L19.0873 36.7335C16.5831 40.8473 14.6581 45.3446 13.4291 50.1463H6.80019C3.03711 50.1463 0 53.1698 0 56.922V68.1378C0 71.9009 3.03711 74.8564 6.80019 74.8564H13.4291C14.6581 79.6582 16.5804 84.1826 19.0819 88.2964L14.3182 93.09C13.0294 94.376 12.3225 96.0972 12.3225 97.9189C12.3225 99.7406 13.0321 101.462 14.3182 102.748L22.2576 110.685C23.5464 111.971 25.2567 112.678 27.0757 112.678C28.8947 112.678 30.6076 111.968 31.8964 110.685L36.8803 105.747C40.9534 108.121 45.3418 109.948 50.1436 111.125V118.205C50.1436 121.966 53.1018 124.997 56.8622 124.997H68.0862C71.8465 124.997 74.851 121.966 74.851 118.205V111.122C79.6554 109.948 84.0167 108.121 88.0897 105.747L93.0301 110.674C94.3189 111.965 96.0319 112.672 97.8564 112.672C99.6781 112.672 101.394 111.962 102.68 110.679L110.619 102.748C111.905 101.464 112.61 99.7488 112.615 97.9298C112.615 96.108 111.903 94.3978 110.619 93.109L105.861 88.2964C108.363 84.1798 110.285 79.6527 111.517 74.8564H118.145C121.906 74.8564 124.997 71.9009 124.997 68.1378V56.922C125 53.1698 121.911 50.1463 118.151 50.1463ZM62.4715 83.8808C50.5677 83.8808 40.9153 74.3181 40.9153 62.5313C40.9153 50.7363 50.5677 41.1872 62.4715 41.1872C74.3779 41.1872 84.0357 50.7363 84.0357 62.5313C84.033 74.3208 74.3779 83.8808 62.4715 83.8808Z" fill="black"/>
</g>
<defs>
<clipPath id="clip0_4_253">
<rect width="125" height="125" fill="white"/>
</clipPath>
</defs>
</svg>
