<svg width="219" height="219" viewBox="0 0 219 219" fill="none" xmlns="http://www.w3.org/2000/svg">
<g clip-path="url(#clip0_3_24)">
<path d="M111.334 136.811C110.36 136.827 109.392 137.242 108.695 137.962C107.999 138.683 107.616 139.663 107.633 140.638C107.649 141.612 108.064 142.579 108.784 143.276C109.504 143.973 110.485 144.355 111.459 144.339C112.433 144.323 113.401 143.908 114.097 143.188C114.794 142.467 115.176 141.487 115.16 140.512C115.144 139.538 114.729 138.571 114.009 137.874C113.311 137.155 112.33 136.772 111.334 136.811Z" fill="black"/>
<path d="M111.876 169.446C109.795 169.48 108.14 171.191 108.175 173.272C108.17 174.313 108.628 175.236 109.326 175.91C110.024 176.585 110.96 176.968 112.001 176.973C114.083 176.939 115.737 175.228 115.703 173.147C115.668 171.066 113.957 169.411 111.876 169.446Z" fill="black"/>
<path d="M111.605 153.106C109.524 153.141 107.869 154.851 107.903 156.933C107.92 157.951 108.357 158.896 109.055 159.571C109.752 160.246 110.689 160.629 111.73 160.634C113.811 160.599 115.466 158.889 115.431 156.808C115.397 154.726 113.686 153.072 111.605 153.106Z" fill="black"/>
<path d="M114.823 186.848C114.103 186.151 113.122 185.769 112.148 185.785C111.174 185.801 110.206 186.216 109.509 186.936C108.813 187.657 108.43 188.637 108.447 189.612C108.463 190.586 108.878 191.553 109.598 192.25C110.296 192.925 111.299 193.329 112.273 193.313C113.247 193.297 114.215 192.882 114.911 192.162C115.608 191.441 115.99 190.461 115.974 189.486C115.936 188.49 115.521 187.523 114.823 186.848Z" fill="black"/>
<path d="M137.626 191.74L136.613 132.072C136.526 126.847 138.943 121.736 143.053 118.478C155.993 108.209 163.267 92.8513 162.993 76.3347C162.853 67.9658 160.7 59.6524 156.792 52.3427C152.975 45.2529 147.535 39.0316 140.968 34.335C138.906 32.8633 136.245 32.6861 133.984 33.8531C131.744 35.042 130.365 37.3238 130.429 39.8696L130.756 60.8366C130.819 64.6448 129.395 68.234 126.739 70.98C124.083 73.726 120.543 75.2686 116.735 75.3319L103.849 75.5461C100.041 75.6093 96.4516 74.1852 93.7056 71.529C90.9596 68.8728 89.417 65.3329 89.3537 61.5248L89.0056 40.5802C88.9636 38.0562 87.5309 35.799 85.2535 34.6852C82.9761 33.5715 80.3011 33.8595 78.2893 35.3989C71.8821 40.3111 66.6287 46.688 63.0726 53.9225C59.3874 61.3806 57.5332 69.7384 57.6723 78.1074C57.907 92.2328 63.6396 105.359 73.6107 115.004C75.2763 116.615 77.0733 118.135 78.9791 119.543C83.217 122.684 85.7806 127.691 85.8674 132.916L86.8587 192.561C86.8757 193.58 87.3122 194.525 88.0099 195.2C88.7077 195.875 89.6442 196.258 90.6851 196.263C92.7663 196.228 94.421 194.517 94.3864 192.436L93.4176 132.812C93.2917 125.241 89.5843 118.038 83.4857 113.533C72.0949 105.085 65.4354 92.152 65.1999 77.9823C64.9725 64.2996 71.0432 51.1325 81.5727 42.409L81.8703 61.6491C81.9667 67.4499 84.3163 72.9031 88.4803 76.9309C92.6443 80.9588 98.1508 83.1483 103.973 83.0294L116.859 82.8153C122.66 82.7188 128.113 80.3693 132.141 76.2053C136.169 72.0413 138.358 66.5348 138.239 60.7123L137.92 41.4946C148.711 49.8416 155.216 62.7998 155.465 76.4599C155.7 90.6296 149.474 103.777 138.371 112.599C132.425 117.304 128.937 124.648 129.085 132.198L130.076 191.843C130.111 193.924 131.822 195.579 133.903 195.544C136.006 195.532 137.661 193.821 137.626 191.74Z" fill="black"/>
</g>
<defs>
<clipPath id="clip0_3_24">
<rect width="218.867" height="218.867" fill="white" transform="translate(0.0304413 0.0304565)"/>
</clipPath>
</defs>
</svg>
